<svg width="603" height="363" viewBox="0 0 603 363" fill="none" xmlns="http://www.w3.org/2000/svg">
    <path d="M602.601 362.676C602.601 362.836 467.688 362.972 301.312 362.972C134.936 362.972 0 362.836 0 362.676C0 362.517 134.924 362.38 301.301 362.38C467.677 362.38 602.601 362.505 602.601 362.676Z" fill="#263238"/>
    <path d="M498.743 256.309H110.915C109.443 256.309 108.032 255.724 106.991 254.683C105.95 253.643 105.365 252.231 105.365 250.759C105.365 249.287 105.95 247.876 106.991 246.835C108.032 245.794 109.443 245.209 110.915 245.209H498.743C500.215 245.209 501.626 245.794 502.667 246.835C503.708 247.876 504.292 249.287 504.292 250.759C504.292 252.231 503.708 253.643 502.667 254.683C501.626 255.724 500.215 256.309 498.743 256.309Z" fill="#455A64"/>
    <path d="M160.759 256.308H149.785V362.709H160.759V256.308Z" fill="#455A64"/>
    <path d="M431.633 256.308H420.659V362.709H431.633V256.308Z" fill="#455A64"/>
    <path d="M363.599 58.6075C361.352 57.0554 358.704 56.1862 355.974 56.1045C353.244 56.0228 350.548 56.7322 348.212 58.1471C345.876 59.5621 343.998 61.6223 342.806 64.0797C341.614 66.537 341.157 69.2866 341.492 71.9974C341.845 74.8121 343.03 77.6382 342.312 80.3846C340.956 85.5126 333.72 87.5182 332.763 92.7374C332.387 94.8 333.116 96.874 333.674 98.8911C334.233 100.908 334.575 103.187 333.526 104.999C332.763 106.344 331.361 107.187 330.267 108.281C326.735 111.802 326.848 117.979 329.754 121.956C332.66 125.933 337.936 127.904 342.916 127.745C347.915 127.379 352.735 125.731 356.91 122.959" fill="#263238"/>
    <path d="M358.951 60.3391C359.77 57.9652 361.187 55.8424 363.065 54.1756C364.944 52.5089 367.22 51.3545 369.674 50.8238C374.54 49.6842 380.58 48.066 385.036 50.3338C387.816 51.7582 390.483 53.8208 391.577 56.7495C392.876 60.1682 390.882 66.6865 389.879 70.2647C388.876 73.8429 388.135 77.8998 390.107 81.045C392.078 84.1902 395.918 85.2842 398.334 87.9621C399.939 89.8827 400.732 92.3533 400.545 94.8492C400.358 97.345 399.205 99.6696 397.331 101.329C401.639 101.079 405.308 105.466 405.115 109.773C404.921 114.081 401.821 117.864 397.981 119.813C394.141 121.762 389.696 122.172 385.389 122.183C380.028 122.195 374.68 121.642 369.435 120.531C365.127 119.619 360.638 118.172 357.834 114.776C355.259 111.654 354.541 107.392 354.541 103.38C354.541 89.0561 362.028 74.8913 358.769 60.9203" fill="#263238"/>
    <path d="M384.659 166.58L390.186 183.879C391.236 187.407 393.24 190.576 395.977 193.037C398.714 195.498 402.077 197.156 405.695 197.827L442.606 204.665L452.645 204.346L442.606 191.947L414.869 182.489C413.539 182.2 412.313 181.553 411.324 180.616C410.336 179.68 409.623 178.491 409.262 177.178L398.163 153.145L384.181 161.726L384.659 166.58Z" fill="#FFBE9D"/>
    <path d="M330.245 149.658C330.758 152.336 338.564 171.822 338.564 171.822C338.564 171.822 368.945 161.566 368.546 160.005C368.215 158.786 362.381 139.276 355.384 128.473C354.068 126.387 352.282 124.637 350.168 123.365C348.055 122.093 345.673 121.333 343.213 121.146C341.846 121.055 338.883 122.479 338.074 122.935C331.681 126.547 326.245 128.975 330.245 149.658Z" fill="#455A64"/>
    <path d="M373.094 111.905C386.837 113.443 389.048 122.776 395.475 131.973L404.74 149.066L387.646 159.516L388.239 185.726L396.353 210.796L332.252 204.768L338.166 183.299L329.631 149.59C328.982 145.032 327.215 136.451 328.412 131.938C332.138 117.819 346.827 113.705 356.901 111.062C358.986 110.526 369.037 110.56 370.781 110.982" fill="#DCDCDC"/>
    <path d="M330.804 149.384L330.94 149.749C331.02 150.011 331.145 150.376 331.294 150.832C331.601 151.8 332.046 153.191 332.604 154.968C333.744 158.569 335.328 163.709 337.276 169.942L337.06 169.84L365.549 159.31L366.255 159.014L366.141 159.253C364.412 152.833 362.176 146.561 359.452 140.496C357.344 135.505 354.485 130.867 350.974 126.741C349.601 125.189 347.98 123.876 346.176 122.855C344.822 122.076 343.303 121.627 341.743 121.545C341.444 121.528 341.143 121.528 340.843 121.545L340.045 121.625L339.373 121.705L338.826 121.853L338.074 122.046L337.812 122.103C337.889 122.057 337.974 122.026 338.063 122.012L338.803 121.773L339.35 121.613C339.576 121.565 339.804 121.53 340.034 121.511L340.832 121.408C341.139 121.385 341.448 121.385 341.755 121.408C343.354 121.465 344.917 121.902 346.313 122.685C348.148 123.698 349.801 125.011 351.202 126.57C354.771 130.692 357.678 135.344 359.817 140.359C362.568 146.438 364.82 152.73 366.552 159.173V159.344L366.392 159.413L365.674 159.709C354.985 163.709 345.071 167.264 337.105 170.17L336.946 170.239V170.068C335.066 163.811 333.527 158.672 332.388 155.048C331.852 153.259 331.442 151.857 331.157 150.877C331.02 150.421 330.918 150.057 330.838 149.738C330.818 149.621 330.807 149.503 330.804 149.384Z" fill="#263238"/>
    <path d="M365.117 155.379C365.117 155.481 358.565 157.761 350.405 160.461C342.246 163.162 335.591 165.27 335.591 165.156C335.591 165.042 342.144 162.775 350.314 160.074C358.485 157.373 365.049 155.265 365.117 155.379Z" fill="#263238"/>
    <g opacity="0.3">
    <path opacity="0.3" d="M338.667 169.476C339.904 175.057 341.506 180.55 343.464 185.92C344.691 189.335 346.436 192.541 348.638 195.424C351.895 199.18 356.24 201.829 361.071 203.002C365.874 204.163 370.854 204.407 375.748 203.72L351.35 189.931L344.855 167.379L338.667 169.476Z" fill="black"/>
    </g>
    <path d="M341.469 168.199L347.486 187.891C348.526 191.436 350.524 194.626 353.261 197.11C355.997 199.593 359.366 201.273 362.995 201.964L399.906 208.972L409.945 208.653L399.906 196.061L372.158 186.489C370.821 186.189 369.591 185.528 368.605 184.578C367.618 183.627 366.911 182.424 366.562 181.099L361.423 161.282L341.469 168.199Z" fill="#FFBE9D"/>
    <path d="M388.296 185.041C388.197 184.426 388.14 183.806 388.125 183.183C388.068 181.873 387.977 180.164 387.874 178.09C387.692 173.793 387.487 167.834 387.282 161.304C387.076 154.774 386.94 148.769 386.86 144.507C386.86 142.433 386.86 140.723 386.803 139.413C386.776 138.789 386.795 138.165 386.86 137.544C386.973 138.157 387.03 138.778 387.031 139.401C387.099 140.712 387.179 142.421 387.282 144.495C387.464 148.791 387.68 154.751 387.874 161.281C388.068 167.811 388.227 173.816 388.296 178.078C388.296 180.152 388.296 181.873 388.364 183.172C388.4 183.796 388.377 184.421 388.296 185.041Z" fill="#263238"/>
    <g opacity="0.3">
    <path opacity="0.3" d="M384.226 168.199C384.898 168.632 383.166 172.495 379.576 176.175C375.987 179.856 372.181 181.68 371.736 181.007C371.292 180.335 374.106 177.589 377.434 174.101C380.762 170.614 383.519 167.754 384.226 168.199Z" fill="black"/>
    </g>
    <path d="M402.266 144.519C399.974 146.198 397.572 147.721 395.075 149.077C392.674 150.604 390.169 151.96 387.577 153.134C392.265 149.918 397.174 147.036 402.266 144.507V144.519Z" fill="#263238"/>
    <path d="M361.4 145.681C361.4 145.738 360.945 145.613 360.158 145.681C359.037 145.785 357.961 146.178 357.036 146.821C355.654 147.776 354.401 148.906 353.31 150.183C351.951 151.841 350.143 153.071 348.102 153.727C345.823 154.239 343.657 153.442 341.845 152.929C340.289 152.333 338.611 152.126 336.957 152.325C335.858 152.517 334.867 153.1 334.165 153.966C333.938 154.31 333.74 154.672 333.572 155.048C333.572 155.048 333.572 154.923 333.572 154.707C333.655 154.396 333.786 154.1 333.96 153.829C334.64 152.845 335.672 152.16 336.843 151.915C338.569 151.64 340.337 151.805 341.982 152.393C343.806 152.895 345.868 153.624 347.942 153.157C349.874 152.518 351.591 151.354 352.899 149.795C354.041 148.511 355.352 147.388 356.797 146.456C357.796 145.823 358.953 145.483 360.135 145.476C360.451 145.475 360.766 145.517 361.07 145.601C361.298 145.624 361.412 145.658 361.4 145.681Z" fill="#FAFAFA"/>
    <path d="M387.909 141.487C387.537 141.382 387.155 141.317 386.769 141.293C385.728 141.37 384.736 141.768 383.931 142.433C383.384 142.809 382.792 143.288 382.131 143.732C381.394 144.22 380.557 144.536 379.681 144.655C377.686 144.822 375.685 144.428 373.903 143.515C372.202 142.613 370.448 141.814 368.65 141.122C367.205 140.586 365.624 140.538 364.149 140.986C363.147 141.276 362.267 141.884 361.642 142.718C361.231 143.31 361.129 143.732 361.072 143.721C361.015 143.709 361.072 143.607 361.072 143.413C361.143 143.124 361.259 142.847 361.414 142.592C362.006 141.646 362.914 140.939 363.978 140.598C365.535 140.055 367.23 140.055 368.787 140.598C370.618 141.265 372.4 142.061 374.12 142.98C375.799 143.846 377.682 144.24 379.567 144.119C381.083 143.802 382.492 143.1 383.658 142.08C384.542 141.411 385.626 141.057 386.735 141.077C387.037 141.093 387.333 141.174 387.601 141.316C387.783 141.396 387.909 141.464 387.909 141.487Z" fill="#FAFAFA"/>
    <path d="M386.426 147.186C387.148 147.002 387.848 146.738 388.512 146.399C390 145.364 391.279 144.057 392.284 142.548C393.351 140.969 394.85 139.73 396.603 138.981C396.964 138.83 397.351 138.753 397.742 138.753C398.133 138.753 398.521 138.83 398.882 138.981C398.14 139.005 397.407 139.139 396.705 139.38C395.097 140.209 393.722 141.427 392.705 142.924C391.664 144.495 390.286 145.814 388.671 146.787C387.997 147.19 387.198 147.332 386.426 147.186Z" fill="#FAFAFA"/>
    <path d="M488.052 337.173L487.869 325.572L466.138 325.777L466.229 342.756L467.574 342.825C473.579 343.098 498.103 343.816 502.103 342.563C506.558 341.161 488.052 337.173 488.052 337.173Z" fill="#23272F"/>
    <g opacity="0.4">
    <path opacity="0.4" d="M497.1 339.453C497.1 339.453 503.584 341.253 502.797 342.324C502.011 343.396 477.191 343.612 466.24 342.757V342.267H495.185C495.185 342.267 495.835 339.51 497.1 339.453Z" fill="white"/>
    </g>
    <path d="M465.91 342.256H466.286L467.357 342.313L471.312 342.45C474.65 342.541 479.288 342.609 484.36 342.564C489.431 342.518 494.069 342.393 497.396 342.245L501.35 342.051L502.422 341.971C502.546 341.989 502.673 341.989 502.798 341.971H502.422H501.282L497.339 342.085C494 342.176 489.362 342.29 484.303 342.324C479.243 342.359 474.593 342.324 471.266 342.324H467.312H465.853L465.91 342.256Z" fill="#263238"/>
    <path d="M495.198 342.552C495.367 341.897 495.608 341.262 495.916 340.66C496.3 340.105 496.747 339.596 497.249 339.145C496.579 339.395 496.026 339.887 495.699 340.523C495.29 341.115 495.111 341.837 495.198 342.552Z" fill="#263238"/>
    <path d="M488.758 339.406C488.758 339.406 489.123 339.065 489.431 338.563C489.738 338.062 489.955 337.617 489.886 337.583C489.818 337.549 489.522 337.925 489.214 338.426C488.906 338.928 488.701 339.361 488.758 339.406Z" fill="#263238"/>
    <path d="M487.051 338.485C487.051 338.542 487.438 338.314 487.814 337.972C488.19 337.63 488.441 337.311 488.395 337.254C488.35 337.197 488.008 337.436 487.632 337.778C487.256 338.12 486.948 338.439 487.051 338.485Z" fill="#263238"/>
    <path d="M485.909 336.444C485.909 336.524 486.41 336.581 487.048 336.581C487.433 336.62 487.821 336.578 488.188 336.455C487.824 336.32 487.434 336.273 487.048 336.319C486.664 336.277 486.275 336.319 485.909 336.444Z" fill="#263238"/>
    <path d="M485.466 335.008C485.861 335.211 486.293 335.332 486.736 335.361C487.179 335.391 487.623 335.328 488.041 335.179C487.182 335.129 486.324 335.072 485.466 335.008Z" fill="#263238"/>
    <path d="M489.477 337.504C489.941 337.582 490.414 337.582 490.878 337.504C491.382 337.436 491.878 337.321 492.36 337.162C492.653 337.076 492.936 336.958 493.203 336.808C493.369 336.709 493.491 336.55 493.545 336.364C493.566 336.26 493.556 336.152 493.518 336.053C493.48 335.954 493.414 335.869 493.328 335.806C492.793 335.551 492.185 335.491 491.609 335.634C491.034 335.778 490.526 336.116 490.172 336.592C489.958 336.868 489.806 337.186 489.727 337.526C489.697 337.65 489.697 337.779 489.727 337.902C489.868 337.489 490.08 337.103 490.354 336.763C490.651 336.398 491.047 336.125 491.494 335.977C491.764 335.883 492.05 335.844 492.336 335.861C492.621 335.879 492.901 335.953 493.157 336.079C493.385 336.239 493.294 336.501 493.055 336.649C492.804 336.788 492.541 336.903 492.269 336.991C491.8 337.155 491.32 337.284 490.833 337.378C490.012 337.447 489.477 337.458 489.477 337.504Z" fill="#263238"/>
    <path d="M489.841 337.572C490.012 337.276 490.065 336.926 489.989 336.592C489.946 336.227 489.813 335.879 489.601 335.578C489.484 335.376 489.319 335.206 489.12 335.082C488.921 334.959 488.695 334.887 488.462 334.872C488.321 334.904 488.197 334.99 488.117 335.111C488.036 335.231 488.005 335.378 488.029 335.521C488.068 335.745 488.154 335.959 488.28 336.148C488.465 336.455 488.687 336.738 488.941 336.991C489.161 337.24 489.439 337.432 489.75 337.55C489.75 337.55 489.465 337.299 489.077 336.854C488.851 336.599 488.652 336.32 488.485 336.023C488.291 335.726 488.154 335.202 488.485 335.134C488.815 335.065 489.191 335.441 489.408 335.726C489.605 335.994 489.741 336.301 489.807 336.626C489.848 336.94 489.859 337.257 489.841 337.572Z" fill="#263238"/>
    <path d="M466.309 336.308C466.309 336.308 466.924 336.239 467.916 336.308C469.195 336.439 470.412 336.929 471.426 337.721C472.454 338.513 473.243 339.574 473.705 340.786C474.035 341.721 474.081 342.348 474.126 342.336C474.149 342.193 474.149 342.047 474.126 341.903C474.081 341.516 473.997 341.134 473.876 340.764C473.475 339.489 472.698 338.366 471.646 337.542C470.594 336.718 469.318 336.232 467.984 336.148C467.586 336.109 467.186 336.109 466.788 336.148C466.457 336.251 466.309 336.285 466.309 336.308Z" fill="#263238"/>
    <path d="M468.486 327.249C468.339 328.729 468.285 330.217 468.326 331.704C468.285 333.194 468.323 334.685 468.44 336.171C468.588 334.687 468.641 333.195 468.6 331.704C468.641 330.218 468.603 328.731 468.486 327.249Z" fill="#263238"/>
    <path d="M476.792 340.364C477.836 340.594 478.904 340.69 479.972 340.649C481.039 340.697 482.108 340.606 483.151 340.375C483.151 340.296 481.727 340.375 479.972 340.375C478.217 340.375 476.792 340.273 476.792 340.364Z" fill="#263238"/>
    <path d="M472.566 340.399C472.566 340.456 472.68 340.695 472.828 341.026C472.976 341.356 473.056 341.63 473.136 341.63C473.215 341.63 473.238 341.288 473.067 340.912C472.896 340.536 472.611 340.342 472.566 340.399Z" fill="#263238"/>
    <path d="M470.937 338.415C470.937 338.415 471.028 338.688 471.256 338.916C471.484 339.144 471.711 339.281 471.757 339.235C471.803 339.19 471.666 338.95 471.438 338.722C471.21 338.495 470.994 338.358 470.937 338.415Z" fill="#263238"/>
    <path d="M468.634 337.515C468.634 337.595 468.942 337.584 469.261 337.698C469.58 337.811 469.808 337.971 469.865 337.925C469.922 337.88 469.739 337.572 469.341 337.447C468.942 337.321 468.611 337.458 468.634 337.515Z" fill="#263238"/>
    <path d="M466.992 337.105C466.992 337.173 467.095 337.287 467.277 337.356C467.46 337.424 467.619 337.424 467.653 337.356C467.688 337.287 467.551 337.173 467.368 337.105C467.186 337.037 467.015 337.037 466.992 337.105Z" fill="#263238"/>
    <g opacity="0.3">
    <path opacity="0.3" d="M466.333 335.726L488.042 335.179L487.985 332.558L466.174 332.899L466.333 335.726Z" fill="black"/>
    </g>
    <path d="M399.907 211.777L463.404 212.916C468.324 213.01 473.045 214.88 476.695 218.181C480.345 221.481 482.679 225.99 483.267 230.876L495.859 333.209H461.375L450.835 244.824H400.762L399.907 211.777Z" fill="#082C7C"/>
    <path d="M495.424 326.689C495.424 326.848 487.869 327.031 478.559 327.088C469.249 327.145 461.682 327.088 461.682 326.905C461.682 326.723 469.226 326.552 478.547 326.495C487.869 326.438 495.424 326.529 495.424 326.689Z" fill="#455A64"/>
    <path d="M340.376 245.211C315.032 236.823 332.331 202.887 332.331 202.887L443.108 213.303C445.222 213.288 447.319 213.691 449.277 214.491C451.235 215.29 453.015 216.469 454.515 217.959C456.015 219.45 457.205 221.222 458.017 223.175C458.829 225.128 459.246 227.222 459.244 229.336C459.246 231.441 458.832 233.525 458.027 235.47C457.223 237.414 456.043 239.181 454.555 240.669C453.067 242.157 451.3 243.337 449.355 244.142C447.41 244.947 445.326 245.36 443.222 245.359L340.376 245.211Z" fill="#082C7C"/>
    <path d="M374.165 209.245L374.484 206.852L402.836 205.736L416.75 170.648L469.763 174.249L451.872 213.2L374.165 209.245Z" fill="#455A64"/>
    <path d="M437.615 193.406C437.322 193.871 436.898 194.24 436.395 194.464C435.893 194.689 435.335 194.759 434.792 194.666C434.25 194.574 433.747 194.322 433.348 193.943C432.949 193.564 432.671 193.076 432.549 192.539C432.428 192.002 432.468 191.441 432.666 190.928C432.863 190.414 433.209 189.971 433.659 189.653C434.108 189.336 434.642 189.16 435.192 189.146C435.742 189.132 436.284 189.282 436.749 189.577C437.371 189.97 437.811 190.594 437.973 191.312C438.136 192.03 438.007 192.783 437.615 193.406Z" fill="white"/>
    <path d="M363.43 208.551C363.539 208.531 363.651 208.531 363.761 208.551H364.729L368.433 208.699L382.108 209.337L427.052 211.616C429.24 211.719 431.417 211.901 433.548 211.924C435.678 211.946 437.798 212.038 439.872 212.163C441.946 212.288 443.986 212.425 445.969 212.63C447.94 212.758 449.886 213.141 451.758 213.77C453.547 214.402 455.188 215.395 456.578 216.687C457.869 217.935 458.869 219.453 459.507 221.131C460.068 222.682 460.45 224.292 460.646 225.929C460.863 227.439 460.969 228.962 460.965 230.487C461.006 233.116 460.486 235.722 459.438 238.134C458.617 239.943 457.384 241.536 455.837 242.783C454.858 243.561 453.746 244.155 452.555 244.538C452.141 244.671 451.713 244.755 451.279 244.789C451.279 244.789 451.724 244.698 452.521 244.424C453.676 244.008 454.749 243.39 455.689 242.601C457.16 241.361 458.329 239.802 459.108 238.042C460.104 235.667 460.586 233.108 460.521 230.533C460.512 229.037 460.394 227.544 460.168 226.066C459.969 224.466 459.587 222.894 459.028 221.382C458.418 219.773 457.456 218.321 456.213 217.131C454.866 215.901 453.285 214.956 451.564 214.351C449.723 213.723 447.807 213.34 445.866 213.211C443.895 213.018 441.866 212.881 439.792 212.767C437.718 212.653 435.622 212.573 433.491 212.539C431.36 212.505 429.183 212.334 426.984 212.231L382.039 209.724L368.365 208.892L364.661 208.642L363.704 208.562L363.43 208.551Z" fill="#455A64"/>
    <path d="M349.88 62.5384L349.948 65.9571L350.632 116.93C350.712 122.856 362.871 128.986 369.207 128.85C375.6 128.713 373.321 121.91 373.765 116.314C374.096 112.03 374.149 107.729 373.925 103.437C373.925 103.437 382.004 102.093 383.679 91.5403C384.511 86.2983 384.249 77.6946 383.805 70.6635C383.712 69.1636 383.316 67.6981 382.641 66.3553C381.966 65.0124 381.027 63.8201 379.879 62.8501C378.731 61.8801 377.399 61.1525 375.962 60.7111C374.526 60.2698 373.015 60.1239 371.52 60.2821L349.88 62.5384Z" fill="#FFBE9D"/>
    <path d="M381.07 77.455C381.073 77.8089 380.938 78.15 380.693 78.4054C380.448 78.6609 380.113 78.8106 379.76 78.8225C379.588 78.8364 379.415 78.8157 379.251 78.7615C379.087 78.7074 378.936 78.6208 378.806 78.5071C378.677 78.3934 378.571 78.2548 378.496 78.0995C378.421 77.9442 378.378 77.7754 378.369 77.6031C378.366 77.2512 378.5 76.9117 378.742 76.6566C378.985 76.4014 379.317 76.2505 379.668 76.2357C379.841 76.2217 380.014 76.2424 380.179 76.2964C380.343 76.3505 380.495 76.4368 380.626 76.5504C380.756 76.664 380.863 76.8025 380.939 76.9579C381.016 77.1132 381.06 77.2822 381.07 77.455Z" fill="#263238"/>
    <path d="M381.992 75.1082C381.821 75.2791 380.796 74.527 379.337 74.527C377.878 74.527 376.818 75.2563 376.659 75.0854C376.499 74.9144 376.75 74.6865 377.217 74.3447C377.846 73.9083 378.594 73.6774 379.36 73.6837C380.118 73.678 380.857 73.9178 381.468 74.3675C381.924 74.7549 382.072 75.0284 381.992 75.1082Z" fill="#263238"/>
    <path d="M366.883 77.455C366.889 77.8078 366.757 78.1489 366.514 78.4047C366.271 78.6605 365.937 78.8106 365.584 78.8225C365.411 78.8381 365.237 78.8185 365.072 78.7651C364.907 78.7117 364.754 78.6254 364.624 78.5115C364.493 78.3976 364.386 78.2584 364.31 78.1024C364.235 77.9463 364.191 77.7765 364.183 77.6031C364.179 77.2512 364.313 76.9117 364.555 76.6566C364.798 76.4014 365.13 76.2505 365.482 76.2357C365.654 76.2217 365.828 76.2424 365.992 76.2964C366.157 76.3505 366.309 76.4368 366.439 76.5504C366.57 76.664 366.676 76.8025 366.752 76.9579C366.829 77.1132 366.873 77.2822 366.883 77.455Z" fill="#263238"/>
    <path d="M367.681 75.3817C367.51 75.5526 366.484 74.8005 365.026 74.8005C363.567 74.8005 362.507 75.5298 362.348 75.3589C362.188 75.188 362.439 74.96 362.906 74.6182C363.538 74.1802 364.291 73.9493 365.06 73.9572C365.817 73.9547 366.556 74.1942 367.168 74.641C367.612 74.9828 367.761 75.3019 367.681 75.3817Z" fill="#263238"/>
    <path d="M372.969 86.1508C373.734 85.911 374.527 85.7693 375.328 85.7292C375.704 85.7292 376.057 85.6152 376.114 85.3645C376.155 84.9676 376.067 84.568 375.863 84.225C375.521 83.3247 375.145 82.3789 374.724 81.3875C373.705 78.9914 372.878 76.5184 372.251 73.9917C373.465 76.3017 374.491 78.7064 375.316 81.1823L376.365 84.0199C376.598 84.4683 376.667 84.9846 376.558 85.4785C376.504 85.6102 376.42 85.7277 376.313 85.8225C376.207 85.9172 376.08 85.9866 375.943 86.0255C375.739 86.0849 375.528 86.1156 375.316 86.1167C374.538 86.2257 373.75 86.2372 372.969 86.1508Z" fill="#263238"/>
    <path d="M373.971 103.404C369.002 103.478 364.111 102.173 359.84 99.6318C359.84 99.6318 363.259 106.879 373.823 105.888L373.971 103.404Z" fill="#AA6550"/>
    <path d="M372.352 89.683C372.075 89.3332 371.712 89.0605 371.299 88.8909C370.886 88.7213 370.436 88.6605 369.993 88.7143C369.673 88.7402 369.361 88.8314 369.076 88.9823C368.792 89.1332 368.542 89.3406 368.341 89.5918C368.144 89.8351 368.028 90.1333 368.007 90.4455C367.987 90.7577 368.064 91.0685 368.227 91.3353C368.461 91.5943 368.767 91.778 369.106 91.8632C369.445 91.9484 369.801 91.9313 370.13 91.814C370.823 91.5636 371.459 91.176 371.999 90.6744C372.158 90.5534 372.297 90.4071 372.409 90.2414C372.465 90.1611 372.495 90.0657 372.495 89.9679C372.495 89.8701 372.465 89.7746 372.409 89.6944" fill="#AA6550"/>
    <path d="M368.683 87.1748C368.911 87.1748 368.923 88.7474 370.267 89.8642C371.612 90.9809 373.31 90.8214 373.321 91.0037C373.333 91.1861 372.945 91.3114 372.182 91.3342C371.257 91.3433 370.358 91.0289 369.641 90.4454C368.947 89.8765 368.505 89.058 368.41 88.1662C368.398 87.5623 368.535 87.1748 368.683 87.1748Z" fill="#263238"/>
    <path d="M358.461 57.662C358.461 57.5366 358.632 57.4682 358.723 57.5024C358.814 57.5366 358.837 57.6734 358.792 57.7987C358.746 57.9241 358.621 57.9924 358.53 57.9582C358.482 57.9277 358.447 57.8796 358.435 57.8241C358.422 57.7687 358.431 57.7104 358.461 57.662Z" fill="#263238"/>
    <path d="M349.334 112.451C350.881 111.862 352.284 110.946 353.446 109.766C354.608 108.587 355.503 107.17 356.068 105.614C357.174 102.48 357.254 99.0757 356.296 95.8935C355.875 94.4234 355.282 92.8167 355.932 91.4378C356.528 90.5056 357.303 89.7001 358.211 89.0675C360.023 87.3178 361.095 84.9402 361.208 82.4238C361.298 79.92 360.839 77.4268 359.863 75.1192C359.362 73.8429 358.724 72.4527 359.214 71.1535C359.636 70.2593 360.265 69.4781 361.048 68.8744C362.552 67.4712 363.794 65.8121 364.718 63.9743C365.107 63.3583 365.354 62.6633 365.441 61.9398C365.527 61.2163 365.452 60.4826 365.219 59.7921C364.456 58.2081 362.461 57.7067 360.661 57.5813C356.49 57.2623 351.875 58.1853 349.265 61.4217C346.884 64.3162 346.61 68.3616 346.439 72.1108C345.915 83.9281 345.391 95.8593 347.431 107.517" fill="#263238"/>
    <path d="M387.908 61.3648C387.328 61.7272 386.727 62.0545 386.108 62.3448C385.566 62.7457 385.055 63.1876 384.581 63.6667C384.319 63.9288 384.022 64.2251 383.76 64.5214C383.681 64.6012 383.646 64.6809 383.567 64.7607L383.27 65.057L382.53 65.7521C381.819 66.4051 381.057 66.9996 380.251 67.5299C379.058 68.3351 377.73 68.9181 376.33 69.2506C373.637 69.8339 370.826 69.4885 368.354 68.2706C366.639 67.4458 365.135 66.2417 363.955 64.7493C362.166 62.3562 361.881 60.419 362.713 59.3592C363.545 58.2994 365.619 58.4589 367.943 59.0287C369.069 59.3232 370.21 59.5515 371.362 59.7125C372.275 59.8462 373.203 59.823 374.108 59.6441C374.548 59.5365 374.976 59.3837 375.385 59.1882C375.977 58.9261 376.718 58.5273 377.561 58.1285C377.994 57.9233 378.439 57.7182 378.929 57.5359L379.658 57.2738C379.92 57.1826 380.216 57.0801 380.49 57.0117C381.524 56.7522 382.595 56.6675 383.658 56.761C384.5 56.7987 385.323 57.0227 386.068 57.4168C386.812 57.8109 387.461 58.3653 387.965 59.0401C388.615 60.1113 388.353 60.9432 387.908 61.3648Z" fill="#263238"/>
    <path d="M368.055 69.6713C367.907 70.0702 366.46 69.8765 364.751 70.0816C363.041 70.2867 361.662 70.7539 361.435 70.4006C361.332 70.2297 361.571 69.8651 362.13 69.4776C362.868 68.9946 363.713 68.6974 364.591 68.6115C365.466 68.513 366.351 68.6183 367.178 68.9192C367.805 69.1699 368.112 69.489 368.055 69.6713Z" fill="#263238"/>
    <path d="M381.457 70.8913C381.195 71.2218 380.192 70.8913 378.984 70.8913C377.776 70.8913 376.762 71.1079 376.523 70.766C376.42 70.5951 376.58 70.2646 377.036 69.9455C377.636 69.5743 378.332 69.3882 379.037 69.4105C379.743 69.4328 380.426 69.6625 381.001 70.0709C381.423 70.3899 381.571 70.7318 381.457 70.8913Z" fill="#263238"/>
    <path d="M69.8918 224.89L81.1507 222.064L86.5636 243.112L70.1425 247.419L69.7209 246.131C67.909 240.434 60.8893 216.89 61.0602 212.708C61.2653 208.081 69.8918 224.89 69.8918 224.89Z" fill="#23272F"/>
    <g opacity="0.4">
    <path opacity="0.4" d="M65.4124 216.731C65.4124 216.731 61.9937 210.93 61.1619 211.979C60.33 213.027 66.5292 237.049 70.1872 247.419L70.6544 247.26L63.1333 219.295C63.1333 219.295 65.629 217.973 65.4124 216.731Z" fill="white"/>
    </g>
    <path d="M70.7022 247.591C70.647 247.478 70.6049 247.36 70.5768 247.237C70.4743 246.93 70.3603 246.588 70.2464 246.212C69.9273 245.186 69.5398 243.933 69.1068 242.428C68.161 239.226 66.9075 234.793 65.6311 229.893C64.3548 224.993 63.352 220.469 62.5771 217.21L61.7452 213.347C61.6769 212.948 61.6085 212.606 61.5401 212.287C61.4717 211.968 61.4831 211.922 61.4831 211.922C61.5358 212.035 61.5741 212.154 61.5971 212.276C61.6655 212.595 61.7566 212.937 61.8478 213.324C62.0985 214.372 62.3948 215.603 62.7594 217.164C63.5229 220.412 64.6169 224.902 65.8818 229.825C67.1468 234.748 68.3889 239.204 69.3005 242.417C69.7222 243.91 70.0868 245.186 70.3717 246.212C70.4743 246.599 70.5769 246.941 70.6566 247.26C70.682 247.369 70.6973 247.479 70.7022 247.591Z" fill="#263238"/>
    <path d="M62.8042 219.387C63.3953 219.069 63.9494 218.687 64.4566 218.248C64.9076 217.737 65.2906 217.17 65.5961 216.561C65.4822 217.265 65.1559 217.917 64.661 218.43C64.1661 218.943 63.5262 219.293 62.827 219.433L62.8042 219.387Z" fill="#263238"/>
    <path d="M67.5674 224.778C67.5674 224.778 67.7953 224.345 68.1941 223.912C68.593 223.479 68.969 223.171 69.026 223.216C69.083 223.262 68.7981 223.661 68.3879 224.094C67.9776 224.527 67.613 224.835 67.5674 224.778Z" fill="#263238"/>
    <path d="M68.9008 226.315C68.8439 226.315 68.9692 225.882 69.2085 225.438C69.4478 224.994 69.6757 224.663 69.7441 224.697C69.8125 224.731 69.6757 225.119 69.4364 225.563C69.1971 226.008 68.9692 226.315 68.9008 226.315Z" fill="#263238"/>
    <path d="M71.1692 226.816C70.8069 226.142 70.6042 225.393 70.5767 224.628C70.7968 224.945 70.941 225.307 70.9983 225.688C71.1353 226.048 71.1936 226.432 71.1692 226.816Z" fill="#263238"/>
    <path d="M72.6613 226.827C72.3295 226.522 72.0955 226.126 71.989 225.688C71.8052 225.281 71.7496 224.828 71.8295 224.389C72.0075 224.78 72.145 225.189 72.2397 225.608C72.424 225.998 72.5653 226.407 72.6613 226.827Z" fill="#263238"/>
    <path d="M69.2075 223.591C69.0239 223.16 68.9123 222.702 68.877 222.235C68.8284 221.731 68.8284 221.223 68.877 220.719C68.8825 220.412 68.9246 220.106 69.0023 219.808C69.0509 219.623 69.1693 219.463 69.3328 219.363C69.4279 219.318 69.5341 219.3 69.639 219.312C69.7439 219.324 69.8432 219.365 69.9254 219.432C70.3121 219.881 70.5304 220.451 70.5429 221.043C70.5553 221.636 70.3612 222.214 69.9938 222.679C69.7828 222.957 69.5146 223.187 69.2075 223.352C69.1001 223.421 68.98 223.467 68.8542 223.489C69.2315 223.24 69.5663 222.932 69.8456 222.577C70.1231 222.177 70.2812 221.707 70.3014 221.221C70.3332 220.646 70.1459 220.08 69.7772 219.637C69.5607 219.466 69.3214 219.637 69.2416 219.888C69.1768 220.165 69.1348 220.447 69.1163 220.731C69.0762 221.228 69.0762 221.727 69.1163 222.224C69.1277 223.067 69.253 223.58 69.2075 223.591Z" fill="#263238"/>
    <path d="M69.0608 223.261C69.3085 223.03 69.6337 222.9 69.9724 222.897C70.3559 222.841 70.7472 222.88 71.112 223.011C71.3414 223.074 71.5512 223.194 71.7224 223.359C71.8936 223.524 72.0207 223.73 72.092 223.956C72.0954 224.102 72.043 224.243 71.9455 224.351C71.848 224.459 71.7129 224.526 71.5678 224.538C71.3452 224.557 71.1209 224.534 70.9069 224.469C70.5628 224.368 70.2334 224.222 69.9269 224.036C69.6325 223.886 69.3755 223.672 69.1748 223.41C69.1748 223.41 69.4938 223.615 70.018 223.877C70.3238 224.028 70.6446 224.146 70.9753 224.23C71.3057 224.344 71.8527 224.333 71.8185 223.979C71.7843 223.626 71.3399 223.375 71.0208 223.239C70.7086 223.119 70.375 223.064 70.0408 223.079C69.7095 223.112 69.3816 223.173 69.0608 223.261Z" fill="#263238"/>
    <path d="M76.3541 245.688C76.3541 245.688 76.2516 245.062 75.8983 244.15C75.4405 242.944 74.6507 241.892 73.6203 241.115C72.5899 240.339 71.3608 239.87 70.0751 239.763C69.0951 239.683 68.4797 239.763 68.4797 239.763C68.6134 239.705 68.756 239.67 68.9014 239.66C69.2961 239.59 69.6978 239.567 70.0979 239.592C71.4313 239.651 72.7155 240.113 73.7813 240.917C74.8472 241.72 75.6448 242.828 76.0692 244.093C76.196 244.463 76.2876 244.845 76.3427 245.233C76.3647 245.384 76.3685 245.537 76.3541 245.688Z" fill="#263238"/>
    <path d="M84.5469 241.232C83.1488 241.748 81.722 242.182 80.2735 242.532C78.8468 242.972 77.3926 243.319 75.9204 243.569C77.3309 243.055 78.769 242.622 80.228 242.269C81.6467 241.842 83.0887 241.496 84.5469 241.232Z" fill="#263238"/>
    <path d="M69.7093 236.572C68.8 234.643 68.2441 232.566 68.0684 230.441C68.1481 230.441 68.4102 231.82 68.8661 233.518C69.3219 235.216 69.7891 236.572 69.7093 236.572Z" fill="#263238"/>
    <path d="M70.7818 240.685C70.7818 240.753 70.4628 240.685 70.1095 240.593C69.7562 240.502 69.4599 240.525 69.4485 240.457C69.4371 240.388 69.7562 240.263 70.1551 240.331C70.5539 240.4 70.8274 240.628 70.7818 240.685Z" fill="#263238"/>
    <path d="M73.117 241.746C73.117 241.746 72.8321 241.746 72.5472 241.563C72.2623 241.381 72.08 241.221 72.1142 241.164C72.1484 241.107 72.4105 241.164 72.684 241.335C72.9575 241.506 73.1512 241.677 73.117 241.746Z" fill="#263238"/>
    <path d="M74.5293 243.739C74.4495 243.739 74.3812 243.465 74.1988 243.18C74.0165 242.895 73.7886 242.713 73.8228 242.656C73.857 242.599 74.1874 242.656 74.4153 243.032C74.6432 243.408 74.6433 243.739 74.5293 243.739Z" fill="#263238"/>
    <path d="M75.4073 245.209C75.3389 245.209 75.2022 245.209 75.0882 245.004C74.9742 244.799 74.9401 244.685 74.997 244.639C75.054 244.594 75.1908 244.696 75.3047 244.856C75.4187 245.015 75.4643 245.175 75.4073 245.209Z" fill="#263238"/>
    <g opacity="0.3">
    <path opacity="0.3" d="M76.912 245.494L71.8296 224.389L74.3708 223.763L79.6812 244.913L76.912 245.494Z" fill="black"/>
    </g>
    <path d="M79.5204 246.667L164.156 238.85L291.001 241.687L264.323 212.64L173.249 208.275L72.74 217.768L79.5204 246.667Z" fill="#082C7C"/>
    <path d="M93.2187 230.201C92.3626 230.61 91.4318 230.839 90.4838 230.874C89.5359 231.063 88.56 231.063 87.6121 230.874C89.445 230.261 91.3846 230.032 93.3099 230.201H93.2187Z" fill="#455A64"/>
    <path d="M104.547 229.015C103.661 229.395 102.707 229.593 101.743 229.596C100.8 229.791 99.8266 229.791 98.8831 229.596C100.721 229.009 102.663 228.815 104.581 229.027L104.547 229.015Z" fill="#455A64"/>
    <path d="M115.896 228.001C115.006 228.376 114.047 228.559 113.081 228.537C112.137 228.728 111.165 228.728 110.221 228.537C111.11 228.16 112.069 227.973 113.035 227.99C113.98 227.805 114.952 227.809 115.896 228.001Z" fill="#455A64"/>
    <path d="M127.256 227.17C125.405 227.692 123.465 227.828 121.559 227.568C122.451 227.206 123.41 227.036 124.373 227.067C125.331 226.901 126.313 226.936 127.256 227.17Z" fill="#455A64"/>
    <path d="M138.63 226.497C137.729 226.843 136.767 226.998 135.804 226.953C134.851 227.102 133.878 227.055 132.943 226.816C133.844 226.471 134.806 226.315 135.769 226.361C136.722 226.211 137.696 226.258 138.63 226.497Z" fill="#455A64"/>
    <path d="M150.014 226.007C148.152 226.479 146.211 226.557 144.317 226.235C145.219 225.898 146.182 225.758 147.143 225.825C148.102 225.681 149.081 225.743 150.014 226.007Z" fill="#455A64"/>
    <path d="M161.41 225.677C160.497 225.983 159.533 226.107 158.572 226.042C157.613 226.163 156.64 226.085 155.712 225.814C156.624 225.501 157.589 225.377 158.55 225.449C159.508 225.322 160.483 225.4 161.41 225.677Z" fill="#455A64"/>
    <path d="M172.805 225.506C171.887 225.803 170.919 225.915 169.957 225.837C168.998 225.944 168.028 225.851 167.108 225.563C168.987 225.176 170.926 225.176 172.805 225.563V225.506Z" fill="#455A64"/>
    <path d="M184.201 225.506C183.281 225.794 182.311 225.891 181.352 225.79C180.392 225.89 179.421 225.785 178.503 225.483C180.382 225.088 182.323 225.088 184.201 225.483V225.506Z" fill="#455A64"/>
    <path d="M195.597 225.677C194.669 225.948 193.697 226.029 192.737 225.916C191.777 225.997 190.812 225.88 189.899 225.574C190.821 225.295 191.791 225.209 192.748 225.324C193.712 225.246 194.681 225.366 195.597 225.677Z" fill="#455A64"/>
    <path d="M206.982 226.009C206.051 226.265 205.079 226.335 204.121 226.214C203.159 226.271 202.195 226.139 201.284 225.826C202.212 225.557 203.187 225.487 204.144 225.621C205.106 225.555 206.072 225.687 206.982 226.009Z" fill="#455A64"/>
    <path d="M218.366 226.52C217.432 226.759 216.459 226.81 215.505 226.668C214.543 226.727 213.58 226.579 212.679 226.235C213.613 225.994 214.585 225.94 215.539 226.075C216.502 226.023 217.465 226.174 218.366 226.52Z" fill="#455A64"/>
    <path d="M229.739 227.193C227.835 227.469 225.895 227.345 224.042 226.829C224.982 226.605 225.958 226.566 226.913 226.715C227.878 226.683 228.839 226.846 229.739 227.193Z" fill="#455A64"/>
    <path d="M241.11 228.059C239.2 228.306 237.259 228.151 235.412 227.603C236.352 227.389 237.324 227.365 238.273 227.535C239.245 227.51 240.211 227.689 241.11 228.059Z" fill="#455A64"/>
    <path d="M247.128 228.595C247.128 228.766 247.026 228.891 246.923 228.879C246.821 228.868 246.764 228.731 246.787 228.56C246.809 228.389 246.889 228.276 246.98 228.287C247.071 228.298 247.14 228.424 247.128 228.595Z" fill="#455A64"/>
    <path d="M86.3023 245.813C86.0865 245.489 85.9177 245.136 85.8009 244.765C85.516 244.081 85.1285 243.067 84.6613 241.802C83.7611 239.295 82.6215 235.773 81.5617 231.819C80.5019 227.865 79.7612 224.252 79.2826 221.62C79.0547 220.298 78.8837 219.238 78.7926 218.486C78.7127 218.112 78.6858 217.728 78.7128 217.347C79.1178 218.733 79.445 220.14 79.6928 221.563C80.2626 224.173 81.0831 227.762 82.1315 231.694C83.1799 235.625 84.2511 239.147 85.0488 241.699C85.5406 243.047 85.959 244.42 86.3023 245.813Z" fill="#455A64"/>
    <path d="M139.097 238.646L140.864 227.17L162.367 230.35L159.997 247.158L158.652 247.044C152.67 246.497 128.271 243.842 124.465 242.053C120.215 240.047 139.097 238.646 139.097 238.646Z" fill="#23272F"/>
    <g opacity="0.4">
    <path opacity="0.4" d="M129.822 239.648C129.822 239.648 123.144 240.548 123.793 241.722C124.443 242.896 148.978 246.508 159.952 247.158V246.668L131.28 242.702C131.28 242.702 131.064 239.887 129.822 239.648Z" fill="white"/>
    </g>
    <path d="M160.326 246.714H159.95L158.879 246.622L154.948 246.212C151.632 245.847 147.051 245.278 142.014 244.548C136.977 243.819 132.419 243.033 129.137 242.429L125.251 241.699L124.202 241.472C124.077 241.457 123.955 241.426 123.838 241.38H124.202L125.273 241.551L129.228 242.269C132.51 242.828 137.068 243.568 142.105 244.309C147.142 245.05 151.711 245.642 155.027 246.053L158.948 246.543L160.007 246.691L160.326 246.714Z" fill="#263238"/>
    <path d="M131.269 243.033C131.196 242.36 131.043 241.698 130.813 241.062C130.494 240.457 130.112 239.888 129.674 239.364C130.305 239.713 130.787 240.28 131.03 240.959C131.368 241.596 131.453 242.336 131.269 243.033Z" fill="#263238"/>
    <path d="M138.094 240.753C138.026 240.753 137.775 240.366 137.536 239.819C137.296 239.272 137.205 238.85 137.205 238.85C137.205 238.85 137.524 239.238 137.764 239.773C137.941 240.073 138.054 240.407 138.094 240.753Z" fill="#263238"/>
    <path d="M139.964 240.081C139.964 240.081 139.611 239.854 139.28 239.466C138.95 239.079 138.745 238.725 138.802 238.68C138.859 238.634 139.166 238.908 139.485 239.295C139.805 239.683 140.021 239.99 139.964 240.081Z" fill="#263238"/>
    <path d="M141.365 238.212C140.992 238.309 140.599 238.309 140.226 238.212C139.83 238.21 139.44 238.117 139.086 237.939C139.086 237.859 139.599 237.871 140.226 237.939C140.621 237.943 141.011 238.037 141.365 238.212Z" fill="#263238"/>
    <path d="M141.957 236.845C141.547 237.03 141.091 237.09 140.647 237.016C140.2 237.025 139.76 236.902 139.382 236.663C139.813 236.647 140.245 236.678 140.67 236.754C141.101 236.742 141.532 236.773 141.957 236.845Z" fill="#263238"/>
    <path d="M137.638 238.759C137.17 238.777 136.702 238.708 136.259 238.554C135.767 238.421 135.289 238.238 134.835 238.007C134.549 237.888 134.28 237.731 134.037 237.54C133.892 237.418 133.795 237.248 133.763 237.061C133.756 236.956 133.78 236.85 133.83 236.758C133.88 236.665 133.956 236.588 134.048 236.537C134.615 236.357 135.227 236.379 135.78 236.599C136.332 236.82 136.792 237.224 137.08 237.745C137.249 238.052 137.357 238.388 137.399 238.736C137.422 238.86 137.422 238.988 137.399 239.112C137.318 238.664 137.164 238.233 136.943 237.836C136.684 237.427 136.312 237.103 135.872 236.901C135.617 236.77 135.339 236.69 135.053 236.666C134.768 236.643 134.48 236.676 134.208 236.765C133.969 236.901 134.014 237.164 134.208 237.346C134.429 237.522 134.67 237.671 134.926 237.79C135.369 238.021 135.83 238.215 136.305 238.371C137.114 238.645 137.638 238.725 137.638 238.759Z" fill="#263238"/>
    <path d="M137.274 238.783C137.15 238.468 137.15 238.117 137.274 237.803C137.369 237.446 137.549 237.117 137.798 236.845C137.945 236.657 138.136 236.509 138.356 236.415C138.575 236.321 138.815 236.285 139.052 236.31C139.187 236.359 139.298 236.459 139.36 236.589C139.422 236.72 139.43 236.869 139.382 237.005C139.32 237.223 139.212 237.426 139.063 237.598C138.832 237.871 138.572 238.119 138.288 238.338C138.038 238.555 137.736 238.704 137.411 238.771C137.411 238.771 137.719 238.566 138.163 238.19C138.426 237.967 138.663 237.715 138.87 237.438C139.098 237.176 139.314 236.674 138.972 236.561C138.783 236.555 138.595 236.594 138.423 236.673C138.251 236.752 138.1 236.869 137.981 237.016C137.748 237.252 137.569 237.536 137.457 237.848C137.363 238.152 137.301 238.466 137.274 238.783Z" fill="#263238"/>
    <path d="M160.748 240.766C160.22 240.678 159.688 240.617 159.153 240.583C157.868 240.545 156.597 240.864 155.484 241.506C154.376 242.161 153.469 243.107 152.863 244.241C152.395 245.119 152.281 245.734 152.224 245.723C152.223 245.572 152.246 245.422 152.293 245.278C152.391 244.886 152.529 244.504 152.703 244.139C153.277 242.935 154.198 241.931 155.347 241.256C156.501 240.582 157.832 240.276 159.164 240.378C159.551 240.401 159.934 240.47 160.304 240.583C160.612 240.686 160.76 240.743 160.748 240.766Z" fill="#263238"/>
    <path d="M159.849 231.489C159.778 232.978 159.622 234.462 159.382 235.934C159.223 237.413 158.98 238.881 158.652 240.332C158.723 238.843 158.879 237.359 159.12 235.888C159.271 234.408 159.515 232.939 159.849 231.489Z" fill="#263238"/>
    <path d="M149.741 243.339C148.676 243.426 147.603 243.376 146.55 243.191C145.49 243.089 144.448 242.848 143.451 242.473C143.451 242.393 144.852 242.69 146.584 242.929C148.317 243.168 149.741 243.26 149.741 243.339Z" fill="#263238"/>
    <path d="M154.002 243.955C154.002 243.955 153.843 244.24 153.649 244.537C153.455 244.833 153.341 245.106 153.262 245.095C153.182 245.084 153.205 244.742 153.421 244.388C153.638 244.035 153.957 243.898 154.002 243.955Z" fill="#263238"/>
    <path d="M155.872 242.27C155.872 242.327 155.747 242.532 155.496 242.725C155.246 242.919 154.995 243.022 154.949 242.965C154.904 242.908 155.075 242.703 155.337 242.509C155.599 242.315 155.838 242.156 155.872 242.27Z" fill="#263238"/>
    <path d="M158.288 241.643C158.288 241.711 157.969 241.643 157.638 241.734C157.308 241.825 157.057 241.939 157 241.882C156.943 241.825 157.183 241.551 157.593 241.472C158.003 241.392 158.311 241.586 158.288 241.643Z" fill="#263238"/>
    <path d="M159.998 241.461C159.998 241.529 159.872 241.62 159.69 241.666C159.508 241.711 159.325 241.666 159.314 241.609C159.303 241.552 159.439 241.449 159.622 241.404C159.804 241.358 159.998 241.381 159.998 241.461Z" fill="#263238"/>
    <g opacity="0.3">
    <path opacity="0.3" d="M160.806 240.183L139.382 236.662L139.804 234.075L161.353 237.403L160.806 240.183Z" fill="black"/>
    </g>
    <path d="M253.441 59.8364C250.227 65.0214 252.449 73.5112 253.441 79.5509C254.432 85.5906 255.72 91.824 253.988 97.6699C253.053 100.827 251.241 103.767 251.025 107.037C250.74 111.265 253.122 115.128 254.934 118.946C256.745 122.763 258.01 127.515 255.674 131.048C254.797 132.392 253.395 133.646 253.566 135.253C253.794 137.224 256.506 138.033 258.284 137.133C260.062 136.233 261.064 134.341 261.942 132.575C262.45 133.636 262.735 134.791 262.778 135.967C262.821 137.144 262.622 138.316 262.193 139.412C265.317 140.585 268.706 140.862 271.979 140.214C275.253 139.566 278.28 138.017 280.722 135.743V89.8183L253.441 59.8364Z" fill="#263238"/>
    <path d="M261.92 119.333L237.647 146.193L250.969 166.431C250.969 166.431 281.099 142.284 282.102 139.219C284.54 131.766 285.794 112.006 271.948 113.863C268.063 114.441 264.509 116.38 261.92 119.333Z" fill="#DCDCDC"/>
    <path d="M270.934 118.615L295.526 105.989C295.526 105.989 317.827 110.285 318.237 135.492C318.647 160.699 316.995 201.404 316.995 201.404H259.299L270.934 118.615Z" fill="#DCDCDC"/>
    <path d="M273.247 115.413C272.176 109.453 270.968 103.185 270.968 103.185C270.968 103.185 263.059 103.265 259.698 93.5106C256.496 84.2118 254.171 61.8308 254.171 61.8308C259.245 58.6775 265.162 57.1513 271.128 57.4568C277.094 57.7623 282.824 59.885 287.549 63.5401L295.434 112.142C296.358 117.783 292.232 123.059 286.181 123.994C280.039 124.894 274.261 121.099 273.247 115.413Z" fill="#FFBE9D"/>
    <path d="M258 78.833C258.056 79.1692 258.241 79.4703 258.516 79.6724C258.79 79.8745 259.133 79.9617 259.47 79.9156C259.637 79.9014 259.8 79.8539 259.948 79.7759C260.096 79.6978 260.228 79.5908 260.334 79.4612C260.44 79.3316 260.519 79.182 260.567 79.0212C260.614 78.8605 260.629 78.6918 260.61 78.5253C260.554 78.1891 260.369 77.888 260.094 77.6859C259.82 77.4838 259.478 77.3966 259.14 77.4427C258.973 77.4569 258.81 77.5044 258.662 77.5825C258.514 77.6605 258.383 77.7675 258.276 77.8971C258.17 78.0267 258.091 78.1764 258.044 78.3371C257.996 78.4979 257.981 78.6665 258 78.833Z" fill="#263238"/>
    <path d="M257.692 77.5231C257.874 77.6598 258.729 76.771 260.107 76.5317C261.486 76.2924 262.637 76.8052 262.751 76.6C262.865 76.3949 262.592 76.2468 262.102 75.9961C261.427 75.6918 260.677 75.5965 259.948 75.7226C259.226 75.8457 258.563 76.1972 258.056 76.7254C257.692 77.1356 257.6 77.4547 257.692 77.5231Z" fill="#263238"/>
    <path d="M272.198 77.0329C272.257 77.367 272.443 77.6653 272.717 77.865C272.991 78.0648 273.332 78.1505 273.668 78.1041C273.835 78.0899 273.998 78.0424 274.146 77.9643C274.294 77.8863 274.425 77.7793 274.532 77.6497C274.638 77.5201 274.717 77.3704 274.765 77.2097C274.812 77.0489 274.827 76.8803 274.808 76.7138C274.752 76.3776 274.567 76.0765 274.292 75.8744C274.018 75.6723 273.675 75.5851 273.338 75.6312C273.17 75.6468 273.008 75.6957 272.859 75.7749C272.711 75.8542 272.58 75.9622 272.474 76.0927C272.368 76.2232 272.289 76.3736 272.241 76.535C272.194 76.6965 272.179 76.8657 272.198 77.0329Z" fill="#263238"/>
    <path d="M272.221 75.4823C272.415 75.6191 273.258 74.7188 274.648 74.4795C276.038 74.2402 277.167 74.753 277.292 74.5593C277.417 74.3656 277.132 74.1946 276.631 73.9553C275.961 73.6499 275.214 73.5546 274.489 73.6818C273.767 73.8049 273.104 74.1564 272.597 74.6846C272.221 75.0835 272.13 75.4139 272.221 75.4823Z" fill="#263238"/>
    <path d="M269.007 86.6284C268.25 86.5382 267.485 86.5382 266.728 86.6284C266.375 86.6284 266.022 86.6284 265.919 86.4119C265.799 86.0416 265.799 85.6427 265.919 85.2724C266.101 84.3607 266.295 83.4035 266.489 82.4007C267.072 79.9479 267.453 77.4515 267.628 74.9365C266.872 77.3386 266.304 79.7961 265.93 82.2867C265.748 83.3009 265.566 84.2581 265.406 85.1698C265.237 85.6295 265.237 86.1345 265.406 86.5943C265.477 86.7115 265.575 86.81 265.692 86.8814C265.809 86.9528 265.942 86.995 266.079 87.0045C266.283 87.0341 266.49 87.0341 266.694 87.0045C267.478 86.9792 268.256 86.8528 269.007 86.6284Z" fill="#263238"/>
    <path d="M270.933 103.243C275.671 102.484 280.105 100.424 283.741 97.2944C283.741 97.2944 281.702 104.759 271.491 105.59L270.933 103.243Z" fill="#EB996E"/>
    <path d="M270.181 89.8636C270.389 89.4884 270.688 89.1712 271.05 88.9404C271.412 88.7096 271.826 88.5726 272.255 88.5417C272.565 88.5185 272.877 88.5569 273.172 88.6547C273.467 88.7525 273.74 88.9078 273.975 89.1115C274.203 89.308 274.363 89.5706 274.435 89.8626C274.506 90.1546 274.485 90.4617 274.374 90.7411C274.197 91.0301 273.937 91.2594 273.629 91.3995C273.32 91.5397 272.976 91.5842 272.642 91.5274C271.946 91.4067 271.28 91.1512 270.682 90.7753C270.506 90.6917 270.348 90.5757 270.215 90.4334C270.154 90.3646 270.113 90.2797 270.099 90.1887C270.085 90.0978 270.098 90.0047 270.135 89.9206" fill="#EB996E"/>
    <path d="M273.247 86.8783C273.03 86.8783 273.247 88.4053 272.187 89.693C271.127 90.9807 269.463 91.1061 269.486 91.3226C269.509 91.5391 269.896 91.5505 270.569 91.448C271.454 91.3077 272.261 90.8598 272.848 90.183C273.401 89.525 273.686 88.6828 273.646 87.8242C273.589 87.186 273.349 86.8441 273.247 86.8783Z" fill="#263238"/>
    <path d="M280.723 56.361C278.045 62.2753 269.328 69.4773 262.65 72.03C263.254 70.8106 267.026 67.3805 267.641 66.1498C264.929 69.1013 261.02 73.0898 256.884 74.1268C256.4 74.2686 255.886 74.2686 255.402 74.1268C255.132 73.9828 254.899 73.7783 254.721 73.5292C254.543 73.2801 254.425 72.9932 254.377 72.6909C253.574 69.7123 253.097 66.6557 252.952 63.5744C252.815 60.97 253.674 58.4109 255.357 56.418C257.636 53.8539 261.374 52.6232 264.963 51.8597C267.941 51.1037 271.039 50.941 274.08 51.3811C277.054 51.9623 279.777 53.6602 280.723 56.19" fill="#263238"/>
    <path d="M296.744 78.6393C296.793 76.3572 296.709 74.0743 296.493 71.8019C295.809 66.5827 293.268 46.2073 271.594 51.1416L278.522 57.3409C278.522 57.3409 277.178 69.5684 286.169 76.1209C286.169 76.1209 286.169 88.3256 292.368 92.7243C292.368 92.7243 296.71 84.4511 296.744 78.6849" fill="#263238"/>
    <path d="M285.771 75.2554C286.807 74.8346 287.939 74.7084 289.042 74.8907C290.15 75.0831 291.137 75.7057 291.788 76.6229C292.38 77.5785 292.591 78.7211 292.381 79.825C292.165 80.9177 291.71 81.9491 291.048 82.8449C290.61 83.5155 290.02 84.0738 289.327 84.4745C288.978 84.666 288.586 84.7664 288.187 84.7664C287.789 84.7664 287.397 84.666 287.048 84.4745" fill="#FFBE9D"/>
    <path d="M287.515 81.6469C287.401 81.7152 287.982 82.285 288.916 81.8406C289.408 81.5666 289.776 81.1136 289.942 80.5757C290.132 79.9681 290.205 79.3302 290.159 78.6954C290.121 78.017 289.842 77.3744 289.372 76.8835C289.176 76.6741 288.934 76.5127 288.665 76.412C288.396 76.3112 288.108 76.2737 287.822 76.3023C286.808 76.4618 286.615 77.214 286.683 77.214C286.751 77.214 287.116 76.8493 287.822 76.8949C288.252 76.9788 288.637 77.2131 288.908 77.5558C289.18 77.8984 289.32 78.3268 289.304 78.7638C289.389 79.2194 289.369 79.6884 289.244 80.1349C289.12 80.5814 288.895 80.9933 288.586 81.3392C288.062 81.7494 287.629 81.5899 287.515 81.6469Z" fill="#EB996E"/>
    <path d="M313.929 201.404H292.448L295.525 140.563L267.15 141.509C267.15 141.509 262.318 183.672 261.828 189.142C231.288 161.246 210.228 143.64 195.676 133.156C176.304 119.162 165.842 129.976 161.797 135.024C151.108 148.357 132.75 233.392 132.75 233.392L166.036 238.679L183.449 165.155C183.449 165.155 221.396 211.523 252.073 238.417C262.933 247.944 283.263 246.667 291.001 243.613C291.046 243.613 314.681 230.771 313.929 201.404Z" fill="#082C7C"/>
    <path d="M281.692 208.083C281.43 209.392 281.304 210.724 281.316 212.06C281.352 213.658 281.724 215.232 282.408 216.677C283.092 218.122 284.073 219.408 285.287 220.449C286.5 221.491 287.919 222.265 289.452 222.722C290.984 223.179 292.596 223.309 294.181 223.102C295.498 222.908 296.792 222.583 298.045 222.133C297.762 222.368 297.443 222.553 297.099 222.68C296.189 223.102 295.221 223.383 294.227 223.512C292.582 223.763 290.903 223.656 289.303 223.199C287.704 222.742 286.221 221.946 284.957 220.864C283.693 219.783 282.677 218.442 281.978 216.932C281.278 215.423 280.913 213.78 280.906 212.117C280.887 211.111 281.017 210.109 281.293 209.142C281.372 208.771 281.507 208.414 281.692 208.083Z" fill="#455A64"/>
    <path d="M167.301 232.184C167.301 232.355 159.86 231.34 150.743 229.905C141.627 228.469 134.242 227.227 134.265 227.056C134.288 226.885 141.707 227.91 150.834 229.335C159.962 230.759 167.324 232.013 167.301 232.184Z" fill="#455A64"/>
    <path d="M152.122 228.003C152.189 228.965 152.058 229.931 151.735 230.84C151.61 231.798 151.284 232.719 150.778 233.541C150.841 231.622 151.299 229.737 152.122 228.003Z" fill="#455A64"/>
    <path d="M154.915 216.948C154.967 217.913 154.824 218.878 154.494 219.786C154.348 220.742 154.007 221.657 153.491 222.475C153.588 220.556 154.072 218.676 154.915 216.948Z" fill="#455A64"/>
    <path d="M157.9 205.951C157.936 206.915 157.777 207.876 157.433 208.777C157.269 209.728 156.912 210.635 156.384 211.443C156.35 210.48 156.509 209.519 156.852 208.617C157.016 207.666 157.372 206.759 157.9 205.951Z" fill="#455A64"/>
    <path d="M161.138 195.023C160.98 196.935 160.429 198.793 159.519 200.481C159.501 199.517 159.679 198.559 160.044 197.667C160.218 196.718 160.591 195.817 161.138 195.023Z" fill="#455A64"/>
    <path d="M164.453 184.152C164.456 185.119 164.262 186.077 163.883 186.967C163.68 187.907 163.293 188.798 162.744 189.588C162.734 188.623 162.928 187.668 163.313 186.784C163.507 185.837 163.895 184.941 164.453 184.152Z" fill="#455A64"/>
    <path d="M167.975 173.314C167.969 174.278 167.759 175.229 167.359 176.106C167.158 177.043 166.771 177.931 166.22 178.716C166.444 176.811 167.057 174.972 168.02 173.314H167.975Z" fill="#455A64"/>
    <path d="M171.735 162.499C171.705 163.461 171.48 164.407 171.074 165.28C170.854 166.218 170.438 167.1 169.854 167.866C170.103 165.966 170.743 164.139 171.735 162.499Z" fill="#455A64"/>
    <path d="M175.598 151.822C175.552 152.786 175.316 153.731 174.902 154.602C174.664 155.537 174.237 156.413 173.649 157.178C173.688 156.213 173.924 155.267 174.344 154.397C174.577 153.461 175.004 152.583 175.598 151.822Z" fill="#455A64"/>
    <path d="M181.489 151.23C181.364 151.344 180.418 150.478 179.358 149.316C178.298 148.153 177.546 147.116 177.671 147.037C177.797 146.957 178.743 147.789 179.802 148.951C180.862 150.113 181.648 151.105 181.489 151.23Z" fill="#455A64"/>
    <path d="M189.181 159.64C189.067 159.754 188.099 158.899 187.039 157.737C185.979 156.575 185.204 155.549 185.329 155.458C185.455 155.367 186.412 156.199 187.472 157.361C188.532 158.523 189.307 159.526 189.181 159.64Z" fill="#455A64"/>
    <path d="M196.932 167.992C196.806 168.106 195.792 167.262 194.778 166.111C193.764 164.96 192.932 163.935 193.046 163.832C193.16 163.73 194.185 164.562 195.211 165.713C195.927 166.353 196.511 167.128 196.932 167.992Z" fill="#455A64"/>
    <path d="M204.713 176.311C204.599 176.425 203.573 175.593 202.548 174.442C201.522 173.291 200.69 172.277 200.816 172.163C200.941 172.049 201.955 172.892 202.981 174.032C203.7 174.672 204.288 175.446 204.713 176.311Z" fill="#455A64"/>
    <path d="M212.532 184.608C212.407 184.722 211.392 183.89 210.355 182.739C209.318 181.588 208.498 180.574 208.623 180.46C208.749 180.346 209.706 181.178 210.788 182.329C211.871 183.479 212.646 184.494 212.532 184.608Z" fill="#455A64"/>
    <path d="M220.393 192.88C220.279 192.994 219.254 192.162 218.228 191.022C217.203 189.883 216.359 188.857 216.473 188.743C216.587 188.629 217.613 189.473 218.65 190.612C219.687 191.752 220.484 192.766 220.393 192.88Z" fill="#455A64"/>
    <path d="M228.21 201.155C228.085 201.268 227.071 200.437 226.034 199.286C224.997 198.135 224.165 197.132 224.279 197.006C224.393 196.881 225.419 197.724 226.456 198.875C227.493 200.026 228.37 201.041 228.21 201.155Z" fill="#455A64"/>
    <path d="M236.051 209.428C235.926 209.531 234.911 208.699 233.874 207.559C232.837 206.42 232.006 205.394 232.131 205.28C232.256 205.166 233.271 205.998 234.308 207.137C235.345 208.277 236.165 209.314 236.051 209.428Z" fill="#455A64"/>
    <path d="M243.87 217.699C243.756 217.813 242.73 216.981 241.705 215.831C240.679 214.68 239.847 213.677 239.961 213.551C240.075 213.426 241.101 214.269 242.138 215.42C243.175 216.571 243.995 217.597 243.87 217.699Z" fill="#455A64"/>
    <path d="M252.029 225.643C251.11 225.32 250.284 224.776 249.624 224.059C248.485 223 247.664 221.963 247.778 221.849C247.892 221.735 248.918 222.578 250.057 223.615C251.197 224.652 252.12 225.507 252.029 225.643Z" fill="#455A64"/>
    <path d="M262.329 230.258C260.371 230.331 258.445 229.745 256.859 228.594C257.805 228.702 258.731 228.948 259.606 229.324C260.553 229.505 261.47 229.82 262.329 230.258Z" fill="#455A64"/>
    <path d="M273.533 229.21C272.778 229.834 271.861 230.229 270.889 230.35C270.225 230.514 269.544 230.598 268.861 230.6C268.336 230.6 268.006 230.6 268.006 230.475C268.006 230.35 269.26 230.122 270.752 229.78C271.653 229.48 272.587 229.289 273.533 229.21Z" fill="#455A64"/>
    <path d="M282.774 222.657C282.888 222.771 282.09 223.796 280.882 224.822C279.674 225.847 278.546 226.508 278.455 226.372C278.364 226.235 279.321 225.403 280.495 224.377C281.669 223.352 282.66 222.543 282.774 222.657Z" fill="#455A64"/>
    <path d="M227.231 132.028L198.537 116.291L197.511 118.513L226.068 134.513L227.231 132.028Z" fill="#263238"/>
    <path d="M220.325 131.298C220.325 131.298 213.67 122.637 212.702 120.746C211.733 118.854 210.092 115.561 209.579 115.538C209.067 115.515 207.3 115.96 210.172 121.6C213.044 127.241 207.528 124.119 207.528 124.119L202.024 121.042C202.024 121.042 199.175 133.258 201.773 136.665C204.234 139.598 206.962 142.295 209.921 144.722L220.325 131.298Z" fill="#FFBE9D"/>
    <path d="M208.132 142.444C208.132 142.444 242.672 187.08 255.048 190.043C267.424 193.006 299.958 158.5 299.958 158.5L285.85 140.905C285.85 140.905 259.367 165.258 257.601 164.323C255.834 163.389 220.325 131.276 220.325 131.276L208.132 142.444Z" fill="#FFBE9D"/>
    <path d="M296.459 126.751L268.927 154.875L286.488 177.94C286.488 177.94 314.407 156.038 314.647 147.081C314.852 139.468 312.573 125.019 303.684 123.993C302.35 123.877 301.006 124.065 299.755 124.543C298.504 125.02 297.377 125.775 296.459 126.751Z" fill="#DCDCDC"/>
    <path d="M173.672 204.22C173.655 204.45 173.62 204.678 173.57 204.903C173.478 205.382 173.353 206.043 173.193 206.829C172.829 208.561 172.327 211 171.701 214.02L166.368 238.737L166.311 238.999H166.037L153.16 236.937L132.705 233.655H132.42L132.488 233.381C134.414 225.484 136.055 218.806 137.217 214.009C137.799 211.729 138.266 209.861 138.608 208.527C138.767 207.935 138.893 207.456 138.995 207.091C139.029 206.922 139.083 206.758 139.155 206.601C139.146 206.771 139.119 206.939 139.075 207.103L138.767 208.573C138.471 209.895 138.049 211.752 137.537 214.077L132.978 233.45L132.762 233.13L153.274 236.344L166.105 238.395L165.786 238.612C168.008 228.698 169.934 220.117 171.325 213.94L172.977 206.784C173.182 205.997 173.33 205.359 173.456 204.881C173.499 204.652 173.572 204.43 173.672 204.22Z" fill="#455A64"/>
    <path d="M259.139 242.429C258.977 242.449 258.812 242.449 258.649 242.429C258.182 242.363 257.723 242.244 257.282 242.076C255.674 241.417 254.214 240.444 252.986 239.216L240.736 227.455C235.961 222.897 231.619 218.703 228.588 215.661L224.953 212.083C224.492 211.653 224.065 211.188 223.676 210.692C224.188 211.059 224.668 211.466 225.112 211.912L228.884 215.41C232.041 218.373 236.382 222.498 241.146 227.079C245.909 231.66 250.262 235.82 253.282 238.885C254.448 240.113 255.831 241.114 257.362 241.837C258.467 242.327 259.139 242.361 259.139 242.429Z" fill="#455A64"/>
    <path d="M275.241 206.008C272.341 203.52 269.569 200.888 266.933 198.122C264.167 195.487 261.535 192.714 259.047 189.815C261.956 192.292 264.73 194.925 267.355 197.701C270.128 200.329 272.76 203.102 275.241 206.008Z" fill="#455A64"/>
    <path d="M268.927 114.638L267.115 141.509L271.48 141.999L272.904 113.738C271.529 113.746 270.172 114.053 268.927 114.638Z" fill="#263238"/>
    <path d="M268.699 123.07C265.528 123.465 262.321 123.465 259.15 123.07C262.321 122.675 265.528 122.675 268.699 123.07Z" fill="#FAFAFA"/>
    <path d="M318.021 131.96C318.021 132.119 302.853 132.256 284.142 132.256C265.43 132.256 250.274 132.119 250.274 131.96C250.274 131.8 265.43 131.664 284.142 131.664C302.853 131.664 318.021 131.8 318.021 131.96Z" fill="#FAFAFA"/>
    <path d="M266.044 143.515C266.044 143.675 260.221 143.811 253.042 143.811C245.863 143.811 240.051 143.675 240.051 143.515C240.051 143.356 245.863 143.219 253.042 143.219C260.221 143.219 266.044 143.344 266.044 143.515Z" fill="#FAFAFA"/>
    <path d="M318.02 142.626C318.02 142.785 310.043 142.922 300.243 142.922C290.443 142.922 282.477 142.785 282.477 142.626C282.477 142.466 290.454 142.33 300.243 142.33C310.032 142.33 318.02 142.455 318.02 142.626Z" fill="#FAFAFA"/>
    <path d="M318.02 153.509C318.02 153.668 307.764 153.805 295.024 153.805C282.284 153.805 272.039 153.668 272.039 153.509C272.039 153.349 282.295 153.212 295.024 153.212C307.753 153.212 318.02 153.383 318.02 153.509Z" fill="#FAFAFA"/>
    <path d="M318.294 167.058C318.294 167.229 309.382 167.354 298.385 167.354C287.389 167.354 278.511 167.218 278.511 167.058C278.511 166.898 287.423 166.762 298.42 166.762C309.416 166.762 318.294 166.887 318.294 167.058Z" fill="#FAFAFA"/>
    <path d="M317.577 177.052C317.577 177.211 312.152 177.348 305.463 177.348C298.774 177.348 293.361 177.211 293.361 177.052C293.361 176.892 298.785 176.755 305.463 176.755C312.141 176.755 317.577 176.892 317.577 177.052Z" fill="#FAFAFA"/>
    <path d="M317.577 187.023C317.577 187.183 312.152 187.32 305.463 187.32C298.774 187.32 293.361 187.183 293.361 187.023C293.361 186.864 298.785 186.727 305.463 186.727C312.141 186.727 317.577 186.864 317.577 187.023Z" fill="#FAFAFA"/>
    <path d="M313.234 151.252C313.132 151.471 313.006 151.678 312.858 151.868L311.718 153.611C310.139 155.72 308.454 157.747 306.67 159.685C300.478 166.317 293.813 172.49 286.727 178.157L286.5 178.351L286.329 178.1L277.372 165.998L269.064 154.523L268.916 154.318L269.087 154.147L288.767 134.558L294.465 128.86L296.015 127.367C296.19 127.184 296.381 127.017 296.585 126.866C296.436 127.068 296.272 127.258 296.095 127.436L294.602 128.997C293.257 130.387 291.354 132.347 288.972 134.774L269.497 154.546V154.17L277.873 165.565L286.716 177.69H286.306C293.382 172.065 300.075 165.974 306.339 159.457C308.618 157.019 310.339 154.899 311.49 153.509C312.014 152.802 312.436 152.244 312.755 151.834C312.895 151.624 313.055 151.43 313.234 151.252Z" fill="#263238"/>
    <path d="M278.159 60.3952C276.518 64.5432 278.159 72.5771 281.885 76.2237C285.053 79.3461 286.341 84.1323 286.774 88.5766C287.286 93.8186 284.825 99.186 286.17 104.291C287.081 107.71 289.588 110.479 290.91 113.761C291.983 116.563 292.184 119.624 291.486 122.542C290.789 125.46 289.226 128.1 287.002 130.114C288.183 131.069 289.585 131.714 291.08 131.99C292.575 132.266 294.114 132.163 295.559 131.692C297.004 131.221 298.309 130.396 299.353 129.293C300.398 128.189 301.151 126.842 301.542 125.373L301.839 131.618C306.279 128.959 309.501 124.668 310.818 119.663C312.134 114.658 311.439 109.337 308.881 104.838C306.819 101.226 303.525 98.0008 303.32 93.83C303.183 91.1065 304.46 88.4627 304.46 85.7391C304.403 81.3746 301.178 77.7622 299.32 73.8649C297.679 70.355 297.109 66.4463 295.719 62.8339C294.329 59.2215 291.742 55.6774 287.97 54.8569" fill="#263238"/>
    <path d="M219.254 0.205131C218.917 0.241709 218.584 0.314298 218.263 0.421651C217.806 0.592104 217.4 0.87449 217.082 1.24287C216.763 1.61125 216.542 2.05379 216.439 2.52983C216.361 3.24495 216.342 3.96534 216.382 4.68361C216.382 5.4927 216.382 6.37017 216.382 7.31601C216.382 9.22288 216.382 11.3994 216.382 13.8457C216.382 18.7458 216.382 24.7057 216.439 31.5773C216.439 33.298 216.439 35.0758 216.439 36.9104V38.2893C216.41 38.7376 216.453 39.1876 216.565 39.6226C216.695 40.0462 216.926 40.432 217.238 40.7474C217.549 41.0628 217.932 41.2985 218.354 41.4345C218.803 41.5565 219.269 41.6027 219.733 41.5713H230.741V41.8106C230.741 45.8218 230.741 50.0838 230.741 54.4939L230.296 54.3116L242.968 41.6169L243.048 41.5371H243.162H292.346H299.354C299.924 41.5371 300.493 41.5371 301.063 41.5371C301.865 41.4646 302.621 41.1328 303.218 40.592C303.814 40.0512 304.218 39.3309 304.368 38.54C304.437 37.9922 304.46 37.4394 304.436 36.8877V31.7824C304.436 29.5033 304.436 27.2925 304.436 25.0818V11.9768C304.436 9.84584 304.436 7.73764 304.436 5.66363V4.10244C304.426 3.62326 304.322 3.15078 304.129 2.71217C303.843 2.04074 303.367 1.46744 302.759 1.06259C302.152 0.657734 301.44 0.43894 300.71 0.433041H279.263H259.116L229.955 0.341873L221.978 0.284892H219.915H219.22H219.915H221.978L229.955 0.227928L259.139 9.76534e-07H279.286H300.881C301.424 -0.000368499 301.962 0.10411 302.465 0.307688C303.492 0.741808 304.31 1.55943 304.744 2.58681C304.963 3.09491 305.083 3.64035 305.097 4.1936V12.0794C305.097 16.3413 305.097 20.6907 305.097 25.1274V36.9332C305.121 37.5194 305.094 38.1066 305.018 38.6882C304.902 39.2965 304.657 39.8728 304.299 40.3781C303.941 40.8834 303.479 41.3059 302.944 41.6169C302.407 41.9278 301.807 42.1147 301.189 42.1638C300.55 42.1638 300.049 42.1638 299.422 42.1638H292.414H243.23L243.436 42.0841L230.729 54.756L230.285 55.2004V54.5737C230.285 50.1636 230.285 45.9016 230.285 41.8904L230.524 42.1297H219.755C219.249 42.1643 218.741 42.1143 218.251 41.9815C217.76 41.8225 217.314 41.5465 216.953 41.1773C216.592 40.8081 216.326 40.3567 216.177 39.8619C216.06 39.389 216.014 38.9012 216.04 38.4147V37.0358C216.04 35.2011 216.04 33.4234 216.04 31.7027C216.04 24.8653 216.04 18.8712 216.097 13.9711C216.097 11.5172 216.097 9.34062 216.097 7.44135C216.097 6.49551 216.097 5.61805 216.097 4.80896C216.074 4.07839 216.104 3.34707 216.189 2.621C216.308 2.12923 216.549 1.67532 216.889 1.30098C217.23 0.926636 217.659 0.643868 218.137 0.478633C218.48 0.293525 218.865 0.199357 219.254 0.205131Z" fill="#263238"/>
    <path d="M249.544 20.9221C249.546 21.5812 249.352 22.2261 248.988 22.775C248.623 23.324 248.103 23.7523 247.495 24.0055C246.886 24.2588 246.216 24.3257 245.57 24.1976C244.923 24.0696 244.329 23.7524 243.863 23.2864C243.397 22.8203 243.08 22.2264 242.952 21.5799C242.824 20.9333 242.891 20.2633 243.144 19.6548C243.397 19.0463 243.826 18.5268 244.375 18.162C244.923 17.7972 245.568 17.6037 246.227 17.606C247.107 17.606 247.95 17.9553 248.572 18.5772C249.194 19.1991 249.544 20.0426 249.544 20.9221Z" fill="#455A64"/>
    <path d="M262.659 20.9221C262.659 21.5779 262.465 22.2191 262.1 22.7644C261.736 23.3098 261.218 23.7348 260.612 23.9858C260.006 24.2368 259.34 24.3024 258.696 24.1745C258.053 24.0465 257.462 23.7307 256.998 23.2669C256.535 22.8032 256.219 22.2123 256.091 21.569C255.963 20.9258 256.029 20.259 256.28 19.6531C256.531 19.0471 256.956 18.5292 257.501 18.1648C258.046 17.8004 258.687 17.606 259.343 17.606C260.223 17.606 261.066 17.9553 261.688 18.5772C262.31 19.1991 262.659 20.0426 262.659 20.9221Z" fill="#455A64"/>
    <path d="M275.775 20.9221C275.775 21.5779 275.581 22.2191 275.216 22.7644C274.852 23.3098 274.334 23.7348 273.728 23.9858C273.122 24.2368 272.456 24.3024 271.812 24.1745C271.169 24.0465 270.578 23.7307 270.114 23.2669C269.651 22.8032 269.335 22.2123 269.207 21.569C269.079 20.9258 269.144 20.259 269.395 19.6531C269.646 19.0471 270.072 18.5292 270.617 18.1648C271.162 17.8004 271.803 17.606 272.459 17.606C272.895 17.606 273.326 17.6917 273.728 17.8584C274.131 18.025 274.496 18.2693 274.804 18.5772C275.112 18.8851 275.356 19.2507 275.523 19.6531C275.69 20.0554 275.775 20.4866 275.775 20.9221Z" fill="#455A64"/>
    <path d="M214.023 57.5591H111.724C111.207 57.5591 110.695 57.6612 110.217 57.8595C109.739 58.0577 109.305 58.3483 108.94 58.7146C108.575 59.0809 108.285 59.5157 108.088 59.994C107.892 60.4723 107.791 60.9847 107.792 61.502V94.5493C107.791 95.066 107.892 95.5779 108.089 96.0556C108.286 96.5333 108.575 96.9673 108.941 97.3327C109.306 97.698 109.74 97.9876 110.218 98.1846C110.695 98.3817 111.207 98.4823 111.724 98.4808H190.354L202.889 111.016V98.4808H214.034C214.808 98.4808 215.55 98.1735 216.097 97.6264C216.644 97.0793 216.951 96.3372 216.951 95.5635V60.4764C216.951 60.0923 216.875 59.712 216.728 59.3574C216.581 59.0027 216.365 58.6806 216.093 58.4095C215.821 58.1385 215.498 57.9238 215.142 57.7779C214.787 57.6319 214.407 57.5576 214.023 57.5591Z" fill="#455A64"/>
    <path d="M131.314 77.4899C131.316 78.2414 131.095 78.9766 130.679 79.6024C130.263 80.2282 129.67 80.7164 128.976 81.005C128.282 81.2936 127.519 81.3697 126.781 81.2237C126.044 81.0776 125.367 80.716 124.836 80.1846C124.304 79.6532 123.943 78.976 123.796 78.2388C123.65 77.5016 123.727 76.7377 124.015 76.0439C124.304 75.35 124.792 74.7574 125.418 74.3413C126.044 73.9252 126.779 73.7043 127.53 73.7066C128.534 73.7066 129.496 74.1052 130.205 74.8147C130.915 75.5242 131.314 76.4865 131.314 77.4899Z" fill="#FAFAFA"/>
    <path d="M201.019 73.7069C201.019 73.8665 187.196 74.0032 170.149 74.0032C153.101 74.0032 139.266 73.8665 139.266 73.7069C139.266 73.5474 153.089 73.4106 170.149 73.4106C187.208 73.4106 201.019 73.536 201.019 73.7069Z" fill="#FAFAFA"/>
    <path d="M201.019 79.1195C201.019 79.2791 187.196 79.4158 170.149 79.4158C153.101 79.4158 139.266 79.2791 139.266 79.1195C139.266 78.96 153.089 78.8232 170.149 78.8232C187.208 78.8232 201.019 78.9486 201.019 79.1195Z" fill="#FAFAFA"/>
    <path d="M168.212 85.2621C168.212 85.433 161.728 85.5584 153.728 85.5584C145.728 85.5584 139.233 85.433 139.233 85.2621C139.233 85.0912 145.717 84.9658 153.728 84.9658C161.739 84.9658 168.212 85.1026 168.212 85.2621Z" fill="#FAFAFA"/>
    <path d="M435.406 111.221C435.076 111.258 434.752 111.33 434.438 111.438C433.987 111.604 433.586 111.881 433.271 112.243C432.956 112.606 432.738 113.042 432.637 113.512C432.558 114.219 432.539 114.932 432.58 115.643C432.58 116.429 432.58 117.295 432.58 118.229C432.58 120.098 432.58 122.241 432.58 124.657C432.58 129.488 432.58 135.357 432.637 142.126C432.637 143.824 432.637 145.545 432.637 147.38V148.736C432.608 149.176 432.65 149.619 432.762 150.046C432.889 150.466 433.116 150.848 433.424 151.16C433.731 151.472 434.111 151.703 434.529 151.835C434.97 151.954 435.429 151.996 435.885 151.961H446.722V152.211C446.722 156.154 446.722 160.348 446.722 164.746L446.278 164.564L458.813 152.029L458.893 151.949H514.401C514.97 151.949 515.54 151.949 516.087 151.949C516.877 151.881 517.622 151.557 518.211 151.027C518.799 150.496 519.198 149.787 519.346 149.009C519.41 148.468 519.433 147.924 519.415 147.38V135.756C519.415 131.391 519.415 127.095 519.415 122.902V115.141C519.404 114.666 519.299 114.197 519.107 113.762C518.821 113.117 518.355 112.567 517.765 112.18C517.175 111.792 516.486 111.582 515.78 111.574H494.504H474.664L445.936 111.472H438.13H436.101H435.406H436.101H438.13L445.936 111.415L474.664 111.324H494.504H505.558H515.814C516.627 111.324 517.422 111.562 518.102 112.007C518.782 112.452 519.317 113.086 519.643 113.831C519.868 114.329 519.989 114.868 519.996 115.415V123.187C519.996 127.38 519.996 131.676 519.996 136.041V147.664C520.023 148.243 520 148.822 519.928 149.397C519.813 149.997 519.571 150.565 519.217 151.062C518.863 151.56 518.406 151.975 517.876 152.28C517.348 152.59 516.755 152.777 516.144 152.827C515.518 152.827 515.005 152.827 514.401 152.827H507.563H459.109L459.303 152.747C454.973 157.077 450.794 161.237 446.768 165.225L446.335 165.67V165.043C446.335 160.69 446.335 156.496 446.335 152.508L446.574 152.747H435.976C435.474 152.776 434.97 152.726 434.483 152.599C434.001 152.439 433.565 152.167 433.21 151.804C432.855 151.441 432.592 150.999 432.443 150.513C432.324 150.045 432.282 149.56 432.318 149.077V147.721C432.318 145.909 432.318 144.166 432.318 142.468C432.318 135.699 432.318 129.83 432.375 124.999C432.375 122.583 432.375 120.44 432.375 118.571C432.375 117.637 432.375 116.771 432.375 115.985C432.351 115.262 432.381 114.538 432.466 113.819C432.583 113.333 432.82 112.883 433.157 112.513C433.494 112.142 433.919 111.862 434.392 111.7C434.683 111.456 435.033 111.291 435.406 111.221Z" fill="#263238"/>
    <path d="M449.661 133.238C451.751 133.238 453.445 131.544 453.445 129.455C453.445 127.365 451.751 125.671 449.661 125.671C447.572 125.671 445.878 127.365 445.878 129.455C445.878 131.544 447.572 133.238 449.661 133.238Z" fill="#455A64"/>
    <path d="M510.115 125.659C510.115 125.83 499.198 125.955 485.739 125.955C472.281 125.955 461.375 125.83 461.375 125.659C461.375 125.488 472.281 125.363 485.739 125.363C499.198 125.363 510.115 125.5 510.115 125.659Z" fill="#263238"/>
    <path d="M510.115 131.073C510.115 131.244 499.198 131.369 485.739 131.369C472.281 131.369 461.375 131.244 461.375 131.073C461.375 130.902 472.281 130.776 485.739 130.776C499.198 130.776 510.115 130.913 510.115 131.073Z" fill="#263238"/>
    <path d="M490.343 137.227C490.343 137.387 483.859 137.523 475.859 137.523C467.86 137.523 461.375 137.387 461.375 137.227C461.375 137.067 467.86 136.931 475.859 136.931C483.859 136.931 490.343 137.067 490.343 137.227Z" fill="#263238"/>
    <path d="M412.021 48.4315H461.979C462.496 48.43 463.009 48.5306 463.487 48.7275C463.965 48.9244 464.4 49.2138 464.767 49.579C465.133 49.9442 465.423 50.3781 465.622 50.8559C465.82 51.3336 465.922 51.8458 465.922 52.363V85.4104C465.922 86.4561 465.507 87.459 464.767 88.1984C464.028 88.9378 463.025 89.3532 461.979 89.3532H435.655L423.12 101.888V89.3532H411.987C411.212 89.3532 410.469 89.0463 409.92 88.4995C409.371 87.9527 409.061 87.2107 409.058 86.436V51.3488C409.058 50.9618 409.135 50.5787 409.284 50.2218C409.434 49.8648 409.653 49.5412 409.928 49.2697C410.204 48.9982 410.531 48.7843 410.89 48.6404C411.25 48.4965 411.634 48.4255 412.021 48.4315Z" fill="#1E46A0"/>
    <path d="M428.579 69.6046C428.579 70.1866 428.407 70.7555 428.083 71.2392C427.759 71.723 427.3 72.0998 426.762 72.322C426.224 72.5442 425.632 72.6017 425.061 72.4874C424.491 72.373 423.967 72.0918 423.556 71.6795C423.146 71.2672 422.866 70.7423 422.754 70.1712C422.642 69.6001 422.702 69.0086 422.926 68.4716C423.151 67.9346 423.529 67.4762 424.014 67.1545C424.499 66.8328 425.069 66.6623 425.651 66.6646C426.036 66.6646 426.418 66.7407 426.774 66.8886C427.13 67.0365 427.453 67.2532 427.726 67.5264C427.998 67.7996 428.213 68.1238 428.36 68.4804C428.506 68.837 428.581 69.2191 428.579 69.6046Z" fill="#FAFAFA"/>
    <path d="M440.204 69.6046C440.204 70.1861 440.032 70.7546 439.709 71.2381C439.386 71.7216 438.927 72.0984 438.389 72.3209C437.852 72.5434 437.261 72.6017 436.691 72.4882C436.12 72.3748 435.597 72.0948 435.185 71.6836C434.774 71.2724 434.494 70.7486 434.381 70.1782C434.267 69.6079 434.325 69.0168 434.548 68.4795C434.771 67.9423 435.147 67.4831 435.631 67.1601C436.114 66.837 436.683 66.6646 437.264 66.6646C437.651 66.6631 438.034 66.7381 438.391 66.8853C438.749 67.0325 439.073 67.249 439.347 67.5223C439.62 67.7957 439.836 68.1204 439.984 68.4778C440.131 68.8351 440.206 69.2181 440.204 69.6046Z" fill="#FAFAFA"/>
    <path d="M451.827 69.6046C451.827 70.1861 451.655 70.7546 451.332 71.2381C451.009 71.7215 450.549 72.0984 450.012 72.3209C449.475 72.5434 448.884 72.6017 448.313 72.4882C447.743 72.3748 447.219 72.0948 446.808 71.6836C446.397 71.2724 446.117 70.7485 446.004 70.1782C445.89 69.6079 445.948 69.0167 446.171 68.4795C446.393 67.9423 446.77 67.4831 447.254 67.16C447.737 66.837 448.306 66.6646 448.887 66.6646C449.667 66.6646 450.415 66.9743 450.966 67.5257C451.517 68.0771 451.827 68.8249 451.827 69.6046Z" fill="#FAFAFA"/>
    </svg>
    